# xmcd CD database file
#
# Track frame offsets:
#	150
#	17912
#	30037
#	41987
#	58242
#	67592
#	80087
#	95145
#	103860
#	127620
#	138542
#	148900
#	155375
#	171405
#	175855
#	189462
#	201380
#	218647
#	234652
#	240310
#
# Disc length: 3413 seconds
#
# Revision: 0
# Processed by: cddbd v1.5.2PL0 Copyright (c) Steve Scherf et al.
# Submitted via: CDex 1.70beta2
#
DISCID=1c0d5314
DTITLE=John Williamson - Country Classics 2 [CD 2)
DYEAR=2006
DGENRE=Country
TTITLE0=Old Farts in Caravan Parks
TTITLE1=Lillie and McEnroe
TTITLE2=Sheik of Scrubby Creek
TTITLE3=Waratah Rock 'n' Roll
TTITLE4=I Wish Mate, I Wish
TTITLE5=Full Moon Girl
TTITLE6=Dog With No Hair
TTITLE7=The Flight of the Blowfly (with 'Pixie' Jenkins)
TTITLE8=Teach Me to Drive, Dad  - with 'Pixie' Jenkins
TTITLE9=The Bowls
TTITLE10=I Still Call The Commercial Home
TTITLE11=Drunken Duncan
TTITLE12=Big Bum on the Toilet Seat
TTITLE13=Little Piss Piddle
TTITLE14=Christmas Photo
TTITLE15=Bush Town
TTITLE16=No-One Loves Brisbane Like Jesus
TTITLE17=Dear Little Quambatook
TTITLE18=Chook Routine
TTITLE19=I'm Fair Dinkum
EXTD=YEAR: 2006
EXTT0=
EXTT1=
EXTT2=
EXTT3=
EXTT4=
EXTT5=
EXTT6=
EXTT7=
EXTT8=
EXTT9=
EXTT10=
EXTT11=
EXTT12=
EXTT13=
EXTT14=
EXTT15=
EXTT16=
EXTT17=
EXTT18=
EXTT19=
PLAYORDER=
